<svg width="163" height="151" viewBox="0 0 163 151" fill="none" xmlns="http://www.w3.org/2000/svg">
<path d="M139.456 108.25C133.143 99.7734 124.128 93.702 113.9 91.0375L113.581 90.9687L106.212 103.406C106.208 105.062 105.547 106.649 104.376 107.82C103.205 108.991 101.619 109.651 99.9625 109.656C96.525 109.656 93.7125 106.844 90.4312 98.5687V98.3687C90.4312 96.2967 89.6081 94.3096 88.143 92.8445C86.6779 91.3793 84.6908 90.5562 82.6187 90.5562C80.5467 90.5562 78.5596 91.3793 77.0945 92.8445C75.6293 94.3096 74.8062 96.2967 74.8062 98.3687V98.575V98.5625C71.3062 106.844 68.4688 109.65 65.0375 109.65C63.3814 109.645 61.7946 108.985 60.6235 107.814C59.4525 106.643 58.7924 105.056 58.7875 103.4L51.65 90.9375C41.3515 93.5569 32.2547 99.6112 25.8625 108.1L25.775 108.219C23.2412 112.363 21.8304 117.095 21.6813 121.95V121.994C21.7125 122.931 21.6813 124.025 21.6813 125.119V137.619C21.6813 140.934 22.9982 144.113 25.3424 146.458C27.6866 148.802 30.866 150.119 34.1812 150.119H131.056C134.371 150.119 137.551 148.802 139.895 146.458C142.239 144.113 143.556 140.934 143.556 137.619V125.119C143.556 124.031 143.525 122.931 143.556 121.994C143.399 117.084 141.964 112.299 139.394 108.113L139.462 108.237L139.456 108.25ZM49.8 33.2188C49.8 51.4688 61.175 78.2812 82.6125 78.2812C103.675 78.2812 115.425 51.4688 115.425 33.2188V32.8125C115.425 28.5035 114.576 24.2367 112.927 20.2557C111.278 16.2747 108.861 12.6575 105.814 9.61056C102.768 6.56364 99.1503 4.14669 95.1693 2.4977C91.1883 0.84872 86.9215 0 82.6125 0C78.3035 0 74.0367 0.84872 70.0557 2.4977C66.0747 4.14669 62.4575 6.56364 59.4106 9.61056C56.3636 12.6575 53.9467 16.2747 52.2977 20.2557C50.6487 24.2367 49.8 28.5035 49.8 32.8125V33.2375V33.2188ZM120.012 43.9688C120.012 55.8563 127.425 73.3312 141.387 73.3312C155.106 73.3312 162.762 55.8625 162.762 43.9688V43.6438C162.762 37.9731 160.51 32.5347 156.5 28.5249C152.49 24.5152 147.052 22.2625 141.381 22.2625C135.711 22.2625 130.272 24.5152 126.262 28.5249C122.253 32.5347 120 37.9731 120 43.6438V43.9875V43.9688H120.012ZM0.0125 53.9687C0.0125 65.8562 7.425 83.3312 21.3875 83.3312C35.1062 83.3312 42.7625 65.8625 42.7625 53.9687V53.6437C42.7625 47.9731 40.5098 42.5347 36.5001 38.5249C32.4903 34.5152 27.0519 32.2625 21.3813 32.2625C15.7106 32.2625 10.2722 34.5152 6.26242 38.5249C2.25266 42.5347 0 47.9731 0 53.6437L0 53.9875V53.9687H0.0125Z" fill="#4ECB71"/>
</svg>
