<svg width="150" height="150" viewBox="0 0 150 150" fill="none" xmlns="http://www.w3.org/2000/svg">
<path d="M14.0625 9.375C12.8193 9.375 11.627 9.86886 10.7479 10.7479C9.86886 11.627 9.375 12.8193 9.375 14.0625V42.1875C9.375 43.4307 8.88114 44.623 8.00206 45.5021C7.12299 46.3811 5.9307 46.875 4.6875 46.875C3.4443 46.875 2.25201 46.3811 1.37294 45.5021C0.49386 44.623 0 43.4307 0 42.1875V14.0625C0 10.3329 1.48158 6.75604 4.11881 4.11881C6.75604 1.48158 10.3329 0 14.0625 0L42.1875 0C43.4307 0 44.623 0.49386 45.5021 1.37294C46.3811 2.25201 46.875 3.4443 46.875 4.6875C46.875 5.9307 46.3811 7.12299 45.5021 8.00206C44.623 8.88114 43.4307 9.375 42.1875 9.375H14.0625ZM103.125 4.6875C103.125 3.4443 103.619 2.25201 104.498 1.37294C105.377 0.49386 106.569 0 107.812 0L135.938 0C139.667 0 143.244 1.48158 145.881 4.11881C148.518 6.75604 150 10.3329 150 14.0625V42.1875C150 43.4307 149.506 44.623 148.627 45.5021C147.748 46.3811 146.556 46.875 145.312 46.875C144.069 46.875 142.877 46.3811 141.998 45.5021C141.119 44.623 140.625 43.4307 140.625 42.1875V14.0625C140.625 12.8193 140.131 11.627 139.252 10.7479C138.373 9.86886 137.181 9.375 135.938 9.375H107.812C106.569 9.375 105.377 8.88114 104.498 8.00206C103.619 7.12299 103.125 5.9307 103.125 4.6875V4.6875ZM4.6875 103.125C5.9307 103.125 7.12299 103.619 8.00206 104.498C8.88114 105.377 9.375 106.569 9.375 107.812V135.938C9.375 137.181 9.86886 138.373 10.7479 139.252C11.627 140.131 12.8193 140.625 14.0625 140.625H42.1875C43.4307 140.625 44.623 141.119 45.5021 141.998C46.3811 142.877 46.875 144.069 46.875 145.312C46.875 146.556 46.3811 147.748 45.5021 148.627C44.623 149.506 43.4307 150 42.1875 150H14.0625C10.3329 150 6.75604 148.518 4.11881 145.881C1.48158 143.244 0 139.667 0 135.938L0 107.812C0 106.569 0.49386 105.377 1.37294 104.498C2.25201 103.619 3.4443 103.125 4.6875 103.125V103.125ZM145.312 103.125C146.556 103.125 147.748 103.619 148.627 104.498C149.506 105.377 150 106.569 150 107.812V135.938C150 139.667 148.518 143.244 145.881 145.881C143.244 148.518 139.667 150 135.938 150H107.812C106.569 150 105.377 149.506 104.498 148.627C103.619 147.748 103.125 146.556 103.125 145.312C103.125 144.069 103.619 142.877 104.498 141.998C105.377 141.119 106.569 140.625 107.812 140.625H135.938C137.181 140.625 138.373 140.131 139.252 139.252C140.131 138.373 140.625 137.181 140.625 135.938V107.812C140.625 106.569 141.119 105.377 141.998 104.498C142.877 103.619 144.069 103.125 145.312 103.125Z" fill="#F24E1E"/>
<path d="M28.125 131.25C28.125 131.25 18.75 131.25 18.75 121.875C18.75 112.5 28.125 84.375 75 84.375C121.875 84.375 131.25 112.5 131.25 121.875C131.25 131.25 121.875 131.25 121.875 131.25H28.125ZM103.125 46.875C103.125 54.3342 100.162 61.4879 94.8874 66.7624C89.6129 72.0368 82.4592 75 75 75C67.5408 75 60.3871 72.0368 55.1126 66.7624C49.8382 61.4879 46.875 54.3342 46.875 46.875C46.875 39.4158 49.8382 32.2621 55.1126 26.9876C60.3871 21.7132 67.5408 18.75 75 18.75C82.4592 18.75 89.6129 21.7132 94.8874 26.9876C100.162 32.2621 103.125 39.4158 103.125 46.875V46.875Z" fill="#F24E1E"/>
</svg>
