<svg width="151" height="141" viewBox="0 0 151 141" fill="none" xmlns="http://www.w3.org/2000/svg">
<path d="M43.625 19.125C43.625 29.471 37.7422 37.875 30.5 37.875C23.2508 37.875 17.375 29.471 17.375 19.125C17.375 8.76897 23.2508 0.375 30.5 0.375C37.7422 0.375 43.625 8.76897 43.625 19.125ZM49.3437 55.3862C42.3828 64.2254 38 77.1161 38 91.4464C38 102.931 40.6016 113.478 45.5 121.748V128.946C45.5 134.873 42.1484 139.661 38 139.661H23C18.8586 139.661 15.5 134.873 15.5 128.946V119.973C6.63125 113.946 0.5 101.056 0.5 86.0893C0.5 65.3638 12.2516 48.5893 26.75 48.5893H34.25C39.6641 48.5893 45.0781 51.1004 49.3437 55.3862ZM15.5 71.9263C13.1656 75.6763 11.75 80.6652 11.75 86.0893C11.75 91.5134 13.1656 96.5022 15.5 100.252V71.9263V71.9263ZM105.5 128.946V121.748C110.188 113.478 113 102.931 113 91.4464C113 77.1161 108.617 64.2254 101.656 55.3862C105.922 51.1004 111.125 48.5893 116.75 48.5893H124.25C138.758 48.5893 150.5 65.3638 150.5 86.0893C150.5 101.056 144.359 113.946 135.5 119.973V128.946C135.5 134.873 132.148 139.661 128 139.661H113C108.852 139.661 105.5 134.873 105.5 128.946ZM135.5 100.252C137.633 96.5022 139.25 91.5134 139.25 86.0893C139.25 80.6652 137.633 75.6763 135.5 71.9263V100.252V100.252ZM133.625 19.125C133.625 29.471 127.742 37.875 120.5 37.875C113.258 37.875 107.375 29.471 107.375 19.125C107.375 8.76897 113.258 0.375 120.5 0.375C127.742 0.375 133.625 8.76897 133.625 19.125ZM60.5 21.8036C60.5 9.96763 67.2266 0.375 75.5 0.375C83.7734 0.375 90.5 9.96763 90.5 21.8036C90.5 33.6228 83.7734 43.2321 75.5 43.2321C67.2266 43.2321 60.5 33.6228 60.5 21.8036ZM105.5 91.4464C105.5 106.413 99.3594 119.304 90.5 125.33V139.661C90.5 145.587 87.1484 150.375 83 150.375H68C63.8516 150.375 60.5 145.587 60.5 139.661V125.33C51.6406 119.304 45.5 106.413 45.5 91.4464C45.5 70.721 57.2422 53.9464 71.75 53.9464H79.25C93.7578 53.9464 105.5 70.721 105.5 91.4464ZM60.5 105.609V77.2835C58.1562 81.0335 56.75 86.0223 56.75 91.4464C56.75 96.8705 58.1562 101.859 60.5 105.609V105.609ZM90.5 77.2835V105.609C92.6328 101.826 94.25 96.8705 94.25 91.4464C94.25 86.0223 92.6328 81.0335 90.5 77.2835Z" fill="#D27C2C"/>
</svg>
